<svg fill="none" xmlns="http://www.w3.org/2000/svg" viewBox="0 0 24 24"><path d="m22.133 24-8.4-8.4a8.127 8.127 0 0 1-5.067 1.733c-2.422 0-4.472-.839-6.15-2.516C.84 13.139 0 11.089 0 8.667c0-2.423.839-4.473 2.517-6.15C4.194.839 6.244 0 8.667 0c2.422 0 4.472.839 6.15 2.517 1.677 1.677 2.516 3.727 2.516 6.15a8.127 8.127 0 0 1-1.733 5.066l8.4 8.4L22.133 24ZM8.667 14.667c1.666 0 3.083-.584 4.25-1.75 1.166-1.167 1.75-2.584 1.75-4.25 0-1.667-.584-3.084-1.75-4.25-1.167-1.167-2.584-1.75-4.25-1.75-1.667 0-3.084.583-4.25 1.75C3.25 5.583 2.667 7 2.667 8.667c0 1.666.583 3.083 1.75 4.25 1.166 1.166 2.583 1.75 4.25 1.75Z" fill="#000"></path></svg>