<svg xmlns="http://www.w3.org/2000/svg" width="26" height="28" viewBox="0 0 26.902 28.112"><g transform="translate(0.02 -0.013)"><g transform="translate(-0.02 0.013)"><g transform="translate(0 0)"><g><path d="M372.249,392.575h0l-.49-.141-.061-.017-.485-.127h0c-1.126.692-2.817,1.738-2.817,1.738a2.36,2.36,0,0,0-1.181,2.113s-.068,2.173-.1,3.381c.758-.671,1.52-1.342,2.338-1.951a10.944,10.944,0,0,1,1.386-.892,5.137,5.137,0,0,1,1.568-.536,3.9,3.9,0,0,1,1.648.075,3.341,3.341,0,0,1,1.423.814,3.3,3.3,0,0,1,.3.328,3.367,3.367,0,0,1,.752,2.664h0a1.489,1.489,0,0,0-.889-1.287c-.771-.306-1.951-.01-3.249,1.458a24.768,24.768,0,0,0-2.9,4.666l-.647,1.233,8.009-4.62a2.245,2.245,0,0,0,1.016-1.887v-4.829a14.346,14.346,0,0,0-4.391-1.843C373,392.782,372.58,392.663,372.249,392.575Z" transform="translate(-355.867 -380.266)"></path><path d="M56.457,524.236a3.366,3.366,0,0,0-.879-1.331,3.166,3.166,0,0,0-1.4-.736,3.737,3.737,0,0,0-1.579-.017,4.882,4.882,0,0,0-1.481.564,10.583,10.583,0,0,0-1.318.913c-.844.671-1.622,1.418-2.407,2.166s-1.55,1.512-2.363,2.254a9.181,9.181,0,0,1-3.63,2.292c-1.011.211-1.939.028-2.01-.788h0l-.1-.053-.18-.094-.361-.189q-.72-.377-1.437-.764a3.593,3.593,0,0,0,.682,3.381,2.82,2.82,0,0,0,1.131.727,4.368,4.368,0,0,0,2.761.02,5.569,5.569,0,0,0,1.3-.582,11.609,11.609,0,0,0,1.206-.846,22.836,22.836,0,0,0,2.2-2c.7-.713,1.364-1.455,2.027-2.2s1.318-1.51,2.047-2.209a8.082,8.082,0,0,1,1.178-.955,4.809,4.809,0,0,1,.668-.368,3.576,3.576,0,0,1,.731-.219,3.3,3.3,0,0,1,1.508.042,2.341,2.341,0,0,1,.685.315,2.409,2.409,0,0,1,.543.519,2.39,2.39,0,0,0-.564-.5,2.33,2.33,0,0,0-.683-.282,3.215,3.215,0,0,0-1.469.017,3.523,3.523,0,0,0-.7.237,4.966,4.966,0,0,0-.635.375,8.074,8.074,0,0,0-1.127.968c-.7.7-1.325,1.488-1.972,2.254s-1.292,1.534-1.972,2.274a23.489,23.489,0,0,1-2.181,2.1,11.93,11.93,0,0,1-1.216.9,6.1,6.1,0,0,1-1.41.681,4.952,4.952,0,0,1-3.137.047c-.065-.021-.13-.045-.194-.072a4.649,4.649,0,0,0,5.67.29,8.493,8.493,0,0,0,1.324-1.086,18.876,18.876,0,0,0,1.321-1.471c.72-.878,1.465-1.883,2.265-2.958a15.37,15.37,0,0,1,3.174-3.464,2.736,2.736,0,0,1,3.349-.189,2.3,2.3,0,0,1,.876,1.63A4.23,4.23,0,0,0,56.457,524.236Z" transform="translate(-36.022 -506.074)"></path><path d="M1.618,239.852q.748.4,1.492.816l.7.387a2.6,2.6,0,0,0,.655.245,3.418,3.418,0,0,0,1.448-.011,5.173,5.173,0,0,0,1.431-.539,6.546,6.546,0,0,0,.661-.411c.211-.151.423-.317.626-.487.7-.6,1.4-1.241,2.1-1.87-.018-1.011-.105-3.816-.105-3.816a2.36,2.36,0,0,0-1.179-2.113s-2.744-1.7-3.559-2.2-1.645-1-2.461-1.51q-.95-.592-1.891-1.2h0c-.181-.117-.362-.231-.541-.349.858.434,1.709.881,2.555,1.333s1.69.907,2.536,1.371,3.635,1.962,3.635,1.962a2.536,2.536,0,0,0,2.5,0s1.32-.7,2.419-1.3c-.6-.149-1.234-.3-1.882-.451C8.9,228.8,4.523,227.763,2.377,225.83c-.127-.116-.245-.234-.358-.348l-.041-.04a3.423,3.423,0,0,1-.234-.252h0l-.6.348-.4.225a1.469,1.469,0,0,0-.563.564h0l-.013.027h0a1.856,1.856,0,0,0-.191.869V237.5a1.99,1.99,0,0,0,1.027,2l.505.29Z" transform="translate(0.02 -218.288)"></path><path d="M200.822,63.743a8.563,8.563,0,0,0,1.174.172c.2.018.4.028.6.035l.61.021c1.622.042,3.256,0,4.893-.027.883-.013,1.768-.027,2.657-.022l-4.227-2.439a2,2,0,0,0-1.985,0l-.806.465L200.69,63.71C200.738,63.722,200.777,63.735,200.822,63.743Z" transform="translate(-194.538 -59.344)"></path><path d="M145.354,76.041a4.019,4.019,0,0,0-.775-.516,3.126,3.126,0,0,0-.541-.2,2.6,2.6,0,0,0-.556-.086,1.527,1.527,0,0,0-.986.282.7.7,0,0,0-.248.356.616.616,0,0,0,.049.413,1.636,1.636,0,0,0,.741.666l.173-.082c0-.442.641-.858,1.587-.621Z" transform="translate(-137.873 -72.932)"></path><path d="M41.693,9.359a5.464,5.464,0,0,0-1.355-1.831,6.581,6.581,0,0,0-1.972-1.193,15.589,15.589,0,0,0-4.683-.9c-1.609-.1-3.24-.1-4.88-.1s-3.275.028-4.931-.051l-.6-.031c-.207-.011-.423-.027-.626-.049A9.142,9.142,0,0,1,21.4,4.992a5.2,5.2,0,0,1-1.224-.443,2.811,2.811,0,0,1-.564-.382,1.752,1.752,0,0,1-.44-.577,1.148,1.148,0,0,1-.066-.783,1.191,1.191,0,0,1,.447-.628,1.855,1.855,0,0,1,1.343-.307,2.36,2.36,0,0,1,.641.172,2.685,2.685,0,0,1,.563.32,2.962,2.962,0,0,1,.7.731l1.5-.582A4.938,4.938,0,0,0,16.77,1.239a3.891,3.891,0,0,0,.478,5.742c.128.112.257.23.4.341,2.851,2.234,9.591,2.424,13.977,3.157.331.055.755.12,1.226.2,2.127.358,5.236,1.03,5.236,2.6v3.614a10.152,10.152,0,0,0,2.019-1.32,6.256,6.256,0,0,0,1.451-1.792,4.929,4.929,0,0,0,.585-2.191A5.045,5.045,0,0,0,41.693,9.359ZM39.3,14.1a4.009,4.009,0,0,1-.889,1.594A9.644,9.644,0,0,0,38.85,14a4.929,4.929,0,0,0-.02-1.659,3.316,3.316,0,0,0-.7-1.464,4.2,4.2,0,0,0-1.306-1.022A6.885,6.885,0,0,0,35.2,9.311a14.733,14.733,0,0,0-1.726-.282c-1.165-.117-2.354-.141-3.537-.181a68.967,68.967,0,0,1-7.121-.455,17.636,17.636,0,0,1-3.487-.8,7.891,7.891,0,0,1-1.614-.776,4.339,4.339,0,0,1-1.279-1.232A4.325,4.325,0,0,0,17.762,6.74a7.759,7.759,0,0,0,1.617.7,18.125,18.125,0,0,0,3.47.657c1.174.128,2.356.184,3.539.221s2.368.047,3.556.061q.892.012,1.785.04c.594.018,1.192.044,1.792.1a15.612,15.612,0,0,1,1.792.258,7.356,7.356,0,0,1,1.75.585,4.764,4.764,0,0,1,1.482,1.152A3.854,3.854,0,0,1,39.3,14.1Z" transform="translate(-15.24 -0.013)"></path></g></g></g></g></svg>