<svg width="242" height="49" viewBox="0 0 242 49" fill="none" xmlns="http://www.w3.org/2000/svg"><g clip-path="url(#clip0_8570_958)"><path d="M27.036 46.0932C27.605 46.7576 28.2147 46.7161 28.2147 45.4703C28.2147 45.4703 28.0115 46.0102 27.605 46.0102C27.1986 46.0102 26.3451 44.5568 26.3451 44.5568C26.4264 45.0966 26.6702 45.6364 26.9954 46.0932M34.799 42.3559C32.8887 42.0237 31.5475 40.4873 30.2469 39.1585C31.4662 40.9441 33.1732 43.1449 35.5305 43.0203C37.8879 42.8958 38.1724 40.5288 36.9531 39.0339C37.8879 40.8195 37.075 42.7712 34.9209 42.3975M22.3214 41.1517L21.7524 41.8576C20.8988 42.8958 19.8421 43.7263 18.6228 44.2661C17.9725 44.5568 17.2816 44.7644 16.5906 44.889C15.859 45.0136 15.1275 45.0136 14.3959 44.972C12.8514 44.8475 11.3476 44.3907 10.0064 43.6847L8.94963 43.0203C9.15285 43.5186 9.43736 44.0169 9.76251 44.4737L10.0877 44.8475L10.2502 45.0136L10.3722 45.1381L10.4534 45.2212L11.185 45.8441C12.1605 46.2178 13.1766 46.5085 14.1927 46.6331C15.0462 46.7576 15.9403 46.7576 16.7938 46.6331C19.3138 46.3839 21.6304 45.1797 23.3375 43.2695C24.3129 42.1483 25.0851 40.9025 25.6542 39.5322L25.9387 38.8263L25.329 37.5805L25.2071 37.2898C25.0445 36.9576 24.9226 36.5839 24.8006 36.2102C24.2316 37.9958 23.3781 39.6568 22.2807 41.1517M34.108 35.4212C33.9861 35.4212 33.9048 35.5042 33.8235 35.6288C33.7829 35.7949 33.8235 36.0025 33.9048 36.1686C34.0674 36.4178 34.23 36.6254 34.4332 36.833C34.2706 36.5008 34.2706 36.1271 34.4332 35.7949C34.5551 35.6288 34.7583 35.5042 34.9615 35.5042L34.3519 35.3797H34.1487M13.9488 40.3627C13.8269 42.0237 14.4365 43.4771 16.1435 43.8508C17.4035 44.0585 18.7041 43.8508 19.8421 43.2695C18.5415 43.6017 16.7532 43.6847 15.859 42.4805C14.9649 41.2763 15.29 39.4076 15.859 38.1619C16.4281 36.9161 18.1351 35.2551 19.6795 34.3415C16.8751 35.089 14.1927 37.2483 13.9488 40.3627ZM7.28325 33.8432C7.08003 35.2966 6.71424 36.8331 6.55166 38.411C6.42973 39.2415 6.38909 40.072 6.42973 40.9025C6.42973 41.3178 6.47037 41.7746 6.55166 42.1898C6.63295 42.6466 6.71424 43.0619 6.87681 43.4771C7.16131 44.3076 7.56775 45.0966 8.13676 45.8025L8.58384 46.3008L8.70577 46.4254H8.8277L9.07156 46.6746C9.39671 46.9653 9.72186 47.2559 10.0877 47.4636C11.4695 48.3771 13.0546 48.8754 14.6804 49H15.4526C16.7126 49 17.9319 48.7924 19.1105 48.2941C20.3298 47.7542 21.4272 46.9653 22.3214 45.9686C23.053 45.1381 23.7033 44.2661 24.2316 43.2695C24.6381 42.522 25.0039 41.7746 25.2884 40.9856C25.4916 40.4873 25.6542 39.9475 25.8167 39.4076C25.898 39.0339 25.9387 38.8263 25.9387 38.8263L25.7354 39.3661C25.5322 39.8644 25.2884 40.3627 25.0445 40.8195C24.6381 41.567 24.2316 42.2729 23.7439 42.9373C23.1342 43.8093 22.484 44.5983 21.7117 45.3042C20.8176 46.1347 19.8015 46.7576 18.7041 47.1729L17.8099 47.422H16.8345C16.1842 47.4636 15.4933 47.4636 14.843 47.422C13.4611 47.2559 12.1605 46.7576 11.0225 45.9686L10.2502 45.3042L10.0877 45.1381H10.0064L9.92508 45.0136L9.59993 44.5983C9.1935 44.0585 8.86835 43.4356 8.62448 42.7712C8.17741 41.3593 7.97419 39.9059 8.05547 38.4525C8.05547 36.9161 8.29934 35.3797 8.46191 33.8847V33.5525L7.48646 33.1788L7.40518 33.7186M39.1478 32.5144C38.9853 32.722 38.7007 32.8466 38.4569 32.8466C38.7007 33.0127 38.9446 33.1373 39.2291 33.1373L39.5949 33.0542C39.7575 33.0127 39.8794 32.8466 39.9607 32.6805C40.0013 32.5559 39.9607 32.3898 39.9607 32.2653C39.8388 32.0161 39.5949 31.8085 39.3104 31.7254C39.4323 31.9746 39.4323 32.2653 39.2291 32.4314M6.99874 31.2686C6.59231 31.2686 6.18587 31.3517 5.77943 31.4763C6.10458 32.0576 7.2426 32.7636 8.78706 33.1373C10.3315 33.511 11.8353 34.1754 13.1359 35.0475C12.6482 34.5907 12.1605 34.1339 11.5915 33.7602C11.0225 33.2203 10.3722 32.7636 9.68122 32.3483C8.8277 31.85 7.8929 31.5593 6.91745 31.5593M21.4272 32.0161C21.4679 34.0508 21.1834 36.0441 20.6143 37.9542C21.5491 35.7119 22.1182 33.3449 22.2807 30.9364C22.0369 31.3102 21.7524 31.6424 21.4679 31.9746M6.06394 30.4797L5.53557 30.5627L5.0072 30.7288C4.64141 30.8534 4.31626 31.061 4.03176 31.3517C3.74725 31.6008 3.46275 31.933 3.30017 32.2653C2.93438 32.9712 2.73116 33.8017 2.69052 34.5907C2.69052 35.4212 2.77181 36.2517 3.01567 37.0407C3.46275 38.7017 4.23498 40.2381 5.29171 41.5254L6.22651 42.5636L6.14522 42.1898C6.06394 41.7331 6.02329 41.3178 6.02329 40.861V40.4042C5.12913 39.3246 4.43819 38.0788 4.03176 36.7085C3.82854 36.0025 3.70661 35.2966 3.66597 34.5907C3.66597 33.9263 3.74725 33.2619 4.03176 32.639C4.15369 32.3483 4.31626 32.0992 4.56012 31.8915C4.76334 31.6839 5.0072 31.5178 5.25107 31.3517C5.82008 31.1441 6.38909 31.0195 6.99874 31.0195C8.09612 31.0195 9.15285 31.3932 10.047 31.9331C10.8192 32.3898 11.5102 32.8881 12.1198 33.511C12.5263 33.8847 12.8921 34.3 13.2579 34.7568L13.6236 35.2551L13.2985 34.7153C12.9733 34.2585 12.6482 33.8017 12.2824 33.3449C11.7134 32.6805 11.0225 32.0992 10.3315 31.5593C9.88444 31.2686 9.39671 30.978 8.86835 30.8119C8.29934 30.5627 7.68968 30.4381 7.03938 30.3966H6.02329M28.8244 27.6144C29.1495 28.0297 29.7998 28.1958 30.2469 28.3203C31.9946 28.9017 33.7422 28.4864 34.9209 27.0331C32.97 29.1093 29.5559 27.8636 28.4586 25.4551C28.4586 26.0364 28.4586 27.1576 28.8244 27.5729M14.1927 27.9881C14.1927 30.3966 15.8184 33.3449 18.4196 32.8881H18.7854C16.6719 32.639 15.6558 30.1475 15.5745 28.2788C15.4933 26.4102 16.1435 22.7144 18.5415 22.5068H17.9319C15.5339 22.5068 14.2333 25.0398 14.2333 28.0712M2.16215 20.3475C2.16215 20.8873 2.28408 21.4271 2.4873 21.9669C2.77181 22.7975 3.21889 23.5034 3.7879 24.1263L4.0724 24.4169L4.35691 24.7076L4.92592 25.289C5.33235 25.6627 5.69815 26.078 6.02329 26.4932C6.38909 26.95 6.71424 27.4483 6.91745 27.9881L7.08003 28.4034V28.528L7.16132 28.7771C7.2426 29.0678 7.28325 29.4 7.32389 29.6907V30.2305L8.33998 30.4381C8.33998 30.189 8.33998 29.8983 8.25869 29.6492C8.21805 29.2754 8.13676 28.9432 8.01483 28.611L7.93354 28.3619V28.2373L7.73033 27.739C7.56775 27.4483 7.40518 27.1161 7.20196 26.8669L6.59231 26.161C6.18587 25.7458 5.73879 25.372 5.29171 24.9983L4.68206 24.5L4.35691 24.2508L4.0724 24.0017C3.46275 23.4619 2.97502 22.7975 2.64988 22.05C2.44666 21.5517 2.28408 21.0534 2.2028 20.5136M4.15369 23.2958C6.06394 25.1644 6.91745 25.0398 8.09612 27.2407C8.21805 25.6627 7.64904 24.0847 6.51102 22.9636C4.76334 21.2195 3.25953 21.5517 2.52794 18.6864C2.52794 18.6864 2.2028 21.3856 4.15369 23.2542M33.4171 17.6068C33.0513 18.1466 34.0267 18.7695 34.1893 18.9356C34.8396 19.5169 35.4899 20.0983 36.0589 20.7627C35.7744 20.2644 35.4493 19.8076 35.0428 19.3924C34.4738 18.811 33.7016 18.1466 33.9048 17.8144C34.108 17.4822 35.0428 17.5237 35.0428 17.5237C34.7177 17.3992 34.3519 17.3161 34.0267 17.2746C33.7829 17.2746 33.539 17.3576 33.4171 17.5653M32.6855 17.0254C31.9946 17.6898 32.5229 18.6034 33.0919 19.1847C34.4332 20.6381 36.0183 21.6347 36.1808 23.7525C36.3434 25.9119 35.0428 27.9466 33.0106 28.611C31.5881 28.9847 30.0843 28.7356 28.8244 27.9466C28.9869 28.611 29.3934 30.1059 30.0843 30.5627C30.572 30.7703 31.1004 30.8534 31.6288 30.8119H31.7507C34.3519 30.8119 36.9531 28.9432 37.4001 26.2441C37.8879 23.5034 36.4247 21.3025 34.5551 19.6831C34.0267 19.2263 32.5636 18.2712 33.0513 17.4407C33.5797 16.6102 34.5551 17.0669 35.1241 17.3576C34.7177 16.9839 34.1893 16.7347 33.6203 16.7347C33.2545 16.7347 32.8887 16.8593 32.6448 17.15M22.5652 17.4822C24.8006 18.1466 24.8413 20.6797 23.9878 21.3441C23.1342 22.0085 21.7117 21.261 21.2646 20.2229C20.8176 19.1847 21.2646 17.15 22.8497 17.7729C21.5491 17.4822 21.1427 18.8525 21.5085 19.8492C21.8743 20.8458 24.1503 21.8424 24.1097 19.8492C24.1097 19.2678 23.8658 18.4373 23.3375 18.2297C22.8497 18.0636 22.3214 18.3542 22.1588 18.8525C22.1588 18.9771 22.1182 19.1017 22.1588 19.2263C22.1588 20.1398 22.7685 20.6381 23.6626 20.6797C22.8497 20.8458 22.0775 20.3475 21.8743 19.5169V19.3093C21.7524 18.4788 22.3214 17.5653 23.4594 18.0636C23.2155 17.8144 22.9717 17.6068 22.6872 17.4407M25.0851 20.0153C24.9632 18.4373 23.9471 17.1085 22.362 16.9839C23.7845 16.8178 24.9226 17.8559 25.329 19.1847C25.329 19.1017 25.329 19.0186 25.329 19.1847C25.329 19.3508 25.329 19.2678 25.329 19.1847C25.6135 20.2229 25.5729 21.6347 24.5974 22.2992C23.622 22.9636 22.8497 22.5068 22.2807 21.8424C22.6465 22.1331 23.053 22.2576 23.5 22.2992C24.5161 22.2992 25.2477 21.3025 25.1258 19.9737M26.2232 19.2263C25.9387 17.4822 24.6381 16.0703 22.931 15.7381C25.0039 15.9042 26.589 17.6483 26.6702 19.7661L26.1825 25.6212C25.8167 23.5034 26.589 21.3025 26.1825 19.1847M25.6542 13.4542H24.76C23.9878 13.4542 23.2155 13.8695 22.7685 14.4924C22.2807 15.1153 21.8743 15.8212 21.5898 16.5271C21.3459 17.1085 21.1021 17.6898 20.7769 18.2712L20.5331 18.6449C20.4518 18.9771 20.4111 19.3093 20.4518 19.6415C20.5737 21.3856 22.2807 22.2992 22.8091 23.8771C22.4433 23.2958 22.0369 22.7559 21.5491 22.2576C22.4839 23.7941 22.1588 25.6627 21.4679 27.1992C20.7769 28.7356 19.517 30.6042 17.9725 29.5246C16.4281 28.4449 16.9971 27.2407 17.2409 26.161C17.4848 25.0814 17.8506 24.5415 18.257 24.3754C18.6635 24.2093 18.8667 25.1644 18.5009 25.4551C18.1351 25.7458 18.7447 24.5831 18.2977 24.7076C17.8506 24.8322 17.8099 25.6627 17.9319 25.9534C18.4196 27.1161 19.8421 25.5381 19.7608 24.2508C19.6795 22.9636 18.5009 22.5483 17.688 23.2958C16.8751 24.0432 16.4281 25.4136 16.1842 26.4932C15.7778 28.4864 16.2655 31.8085 18.6228 32.3483C19.3138 32.4729 20.0047 32.3483 20.5737 31.8915C21.3053 31.3517 21.9556 30.6458 22.4433 29.8983C22.7685 29.4 23.0936 28.8602 23.3781 28.3203C23.6626 27.7805 23.9471 27.2407 24.191 26.6593C23.7845 27.822 23.2562 28.9847 22.6465 30.0644V30.3966C22.6465 31.1441 22.5246 31.8915 22.4027 32.5975C22.0369 34.8814 21.4679 37.2068 20.3298 39.2C19.7202 40.2381 17.4035 42.8958 16.4281 40.7364C15.4526 38.5771 17.6067 36.2932 18.948 35.172C17.2003 36.3347 15.5339 38.328 15.6965 40.6534C15.9403 43.8093 19.5576 43.5186 21.1834 41.7746C23.6626 39.2415 24.9226 35.172 25.4916 31.6839C25.4916 32.8881 25.1664 34.0508 25.0445 35.2551C24.9226 36.4593 25.3696 36.667 25.6542 37.2898C26.4264 39.2 27.605 40.9856 28.2147 42.9788C28.6211 44.3492 28.8244 47.7127 27.2393 46.4669C25.6541 45.2212 25.898 43.1864 26.0199 41.6085C25.7354 42.522 25.6542 43.5186 25.7354 44.5153C25.8574 45.8025 26.7109 47.8373 28.0928 47.8373C29.4746 47.8373 29.3527 44.9305 29.2714 44.1C28.9869 41.8576 27.8895 39.8229 26.9547 37.8297C28.6618 40.3212 31.1817 45.7195 28.8244 48.211C28.8244 48.211 31.832 48.0449 31.4255 43.9754C31.141 41.5254 30.003 38.9093 29.2714 37.3729C30.1656 38.328 31.0597 39.3246 32.0352 40.2381C33.0106 41.1517 36.3841 42.8127 36.9531 40.6949C37.1563 39.9059 36.5873 39.2 35.937 38.4525C35.2867 37.7051 34.3519 37.1653 33.8642 36.1686C33.3358 35.172 33.6609 35.2551 34.1893 35.1305C34.7177 35.0059 36.1402 35.6703 36.7905 36.2102C36.3028 35.3797 35.4899 34.7983 34.5551 34.5907C33.6203 34.4246 32.7668 34.9644 32.9294 36.0025C33.0919 37.0407 34.1893 37.9542 34.8802 38.7017C35.5712 39.4492 36.506 40.4042 35.7744 40.6949C35.0428 40.9856 34.799 40.6949 34.3112 40.1966C33.4984 39.4907 32.8481 38.6186 32.3603 37.6636C31.1817 35.2966 30.4095 34.7983 30.4095 34.7983C29.3527 34.5907 28.3773 34.1339 27.5644 33.3864C28.7431 34.1754 30.1656 34.4661 31.5881 34.2169C33.3358 33.9678 34.7177 32.8881 36.2621 32.1407C37.8066 31.3932 39.4323 30.8949 40.1639 32.2653C40.3671 32.6805 40.2046 33.2203 39.7981 33.4695C39.7575 33.4695 39.7168 33.4695 39.6762 33.511C38.904 33.7186 38.1317 33.3864 37.7253 32.722C37.7253 33.9678 39.7168 34.5907 40.6516 33.6771C41.5864 32.7636 41.0987 31.1441 38.6601 30.8534C37.8472 30.7703 36.9937 30.8534 36.1808 31.0195C34.9615 31.3102 33.8642 31.9746 32.6042 32.2653C30.0437 32.8466 28.1741 31.6424 27.6863 28.9432C28.1741 30.3136 28.9056 31.6008 30.3282 32.0161C31.7507 32.4729 33.3358 31.8085 34.5957 31.061C33.4984 31.3517 32.3197 31.8085 31.2223 31.4763C30.3282 31.1856 29.5559 30.5212 29.1495 29.6076C28.3366 28.0297 28.1334 26.078 28.1334 24.3339C28.1334 22.5898 28.8244 20.0568 28.3366 18.0636C27.8489 16.0703 26.2638 15.7381 25.6542 14.2017C26.2638 15.1983 27.3612 15.8627 28.0928 16.6932C27.8895 15.2398 26.5483 14.6169 26.2232 13.2881L25.7761 13.3712M1.837 6.51949C2.16215 7.14237 2.52794 8.18051 3.21889 8.47119C3.90983 8.76186 5.0072 8.22203 5.77943 8.18051C6.55166 8.18051 7.28325 8.30508 7.97419 8.63729C7.08003 8.42966 6.14522 8.47119 5.29171 8.80339C6.5923 9.50932 7.77097 11.2534 8.50255 12.5407C9.23414 13.828 9.27478 13.8695 10.047 14.1602C10.8192 14.4508 12.2011 14.1602 13.2172 14.1602C12.6888 12.1669 11.6321 10.3398 10.1283 8.92797L10.2909 9.05254C8.78706 7.64068 6.99874 6.47797 5.08849 5.73051C3.50339 5.10763 1.837 4.65085 0.455121 3.57119C0.861557 4.60932 1.30864 5.60593 1.837 6.60254M5.29171 2.2839C4.19433 2.45 3.09696 2.53305 1.99958 2.49153C1.18671 2.40847 0.129973 1.95169 0.0080418 2.1178C-0.113889 2.2839 1.18671 3.52966 1.47121 3.69576C3.05631 4.5678 4.80399 5.02458 6.42973 5.77203C8.09612 6.60254 9.59993 7.6822 10.9005 9.01102C12.2418 10.3814 13.1359 12.0839 14.5178 13.3297C15.8997 14.5754 18.1351 15.3229 19.6795 16.7347C20.5331 15.1153 20.8582 13.911 19.9234 12.2915C18.9886 10.6305 17.7286 9.6339 16.3468 8.63729C14.5178 7.30847 12.5263 6.22881 10.4128 5.48136L7.85226 4.5678C8.78706 4.7339 9.72186 4.98305 10.6567 5.31525C12.8921 6.06271 15.0055 7.14237 16.9564 8.51271C18.826 9.88305 21.0208 11.7102 21.1834 13.4127C21.2646 14.3263 21.1021 15.2398 20.7769 16.0703C20.6143 16.5271 20.1266 17.6068 20.5331 17.9805C21.2646 16.7763 21.5898 15.2398 22.484 14.1186C23.1342 13.2881 24.1503 12.8729 25.1664 12.9975C25.4103 13.0805 25.6948 13.0805 25.9387 12.9975C25.5322 12.4992 25.0039 12.1669 24.3536 12.0424C21.7117 11.378 19.9234 9.50932 17.6474 8.09746C15.8184 6.97627 13.8675 6.02119 11.876 5.27373C14.7617 6.06271 16.6313 7.14237 19.2325 8.67881C21.1834 9.88305 22.8497 11.378 25.4103 11.7517C21.1834 6.47797 14.8836 2.1178 7.97419 2.07627H7.8929C7.03938 2.07627 6.14522 2.15932 5.29171 2.2839ZM11.5915 0C9.88444 0 8.1774 0.207627 6.51102 0.664407C6.79552 0.830508 7.08003 0.913559 7.40518 0.955085C6.87681 1.07966 6.34844 1.03814 5.86072 0.830508C5.21042 0.581356 5.21042 0.498305 4.60077 0.830508C4.11305 1.12119 3.58468 1.37034 3.01567 1.49492C2.56859 1.61949 1.34928 1.91017 1.10542 1.82712C2.52794 2.32542 4.35691 1.74407 5.82008 1.61949C6.9581 1.53644 8.13676 1.53644 9.27478 1.61949C12.6076 1.78559 15.8184 2.86525 18.5822 4.7339C17.688 3.77881 16.9971 2.6161 16.6719 1.37034C16.3874 0.415254 15.4933 0.249153 14.8023 0.124576C13.7862 0.0830509 12.7295 0 11.7134 0L11.5915 0Z" fill="url(#paint0_linear_8570_958)"></path><path d="M55.7305 36.9161C55.7305 38.4941 55.3647 39.7398 54.6737 40.6949C53.9828 41.65 53.0073 42.1068 51.8287 42.1068C50.65 42.1068 49.5526 41.65 48.8617 40.7364L48.7804 41.9407H47.1953V27.3237H48.9023V32.7636C49.5933 31.8915 50.5687 31.4347 51.788 31.4347C53.0073 31.4347 53.9828 31.8915 54.6737 32.8466C55.3647 33.8017 55.7305 35.089 55.7305 36.75V36.9161ZM53.9828 36.7085C53.9828 35.5042 53.7389 34.5907 53.2919 33.9263C52.8448 33.2619 52.1945 32.9297 51.341 32.9297C50.4874 32.9297 49.3901 33.4695 48.9023 34.5492V38.9924C49.4307 40.072 50.2436 40.6119 51.3816 40.6119C52.5196 40.6119 52.8448 40.2797 53.2919 39.6153C53.7389 38.9508 53.9828 37.9958 53.9828 36.667V36.7085Z" fill="white"></path><path d="M61.0952 39.3661L63.4525 31.6423H65.2815L61.2171 43.5186C60.6075 45.2211 59.5914 46.0932 58.2095 46.0932H57.8843L57.234 45.9271V44.5152H57.6811C58.2501 44.5152 58.7379 44.4322 59.063 44.183C59.3882 43.9339 59.6727 43.5186 59.8759 42.8542L60.2417 41.8161L56.665 31.6423H58.5346L61.0545 39.3661H61.0952Z" fill="white"></path><path d="M132.303 35.7534C132.14 35.7534 131.612 35.6288 131.449 35.5873C130.636 35.4212 129.905 35.2551 129.905 34.383C129.905 33.511 130.677 33.3034 131.612 33.3034C132.994 33.3034 134.213 33.9678 134.376 34.0093L135.148 31.933C134.863 31.7669 133.603 31.1025 131.653 31.1025C129.702 31.1025 127.669 32.0576 127.669 34.4661C127.669 36.8746 129.173 37.2898 130.636 37.5805C130.84 37.5805 131.449 37.7466 131.653 37.7466C132.628 37.9127 133.156 38.2864 133.156 38.9508C133.156 39.6153 132.384 40.1551 131.246 40.1551C129.417 40.1551 128.32 39.6153 127.995 39.4491L127.141 41.4839C127.385 41.6085 128.645 42.3559 131.124 42.3559C133.603 42.3559 135.392 41.1517 135.392 38.9093C135.392 36.833 134.01 36.0441 132.303 35.7534Z" fill="white"></path><path d="M139.578 27.3652L137.343 28.6525V31.3517H136.164V33.5525H137.343V38.3279C137.343 40.3627 138.156 42.1898 141.041 42.1898H141.935V39.989H141.61C140.188 39.989 139.578 39.1585 139.578 38.0373V33.594H142.179V31.3932H139.578V27.4068" fill="white"></path><path d="M157.177 33.3864C158.071 33.3864 158.965 33.8017 159.209 34.7983L161.241 34.0093C160.672 31.933 158.802 31.1855 157.136 31.1855C154.169 31.1855 152.95 33.0542 152.95 34.8813V38.7016C152.95 40.5288 154.128 42.3974 157.136 42.3974C160.144 42.3974 160.672 41.6084 161.241 39.5737L159.209 38.7847C158.924 39.7813 158.03 40.1966 157.177 40.1966C155.632 40.1966 155.226 39.3245 155.226 38.3694V35.255C155.226 34.3 155.632 33.4279 157.177 33.4279" fill="white"></path><path d="M166.809 36.2101L170.995 31.3517H168.232L164.614 35.5873V27.3652H162.338V42.1483H164.614V38.7017L165.346 37.8712L168.557 42.1483H171.28L166.809 36.2101Z" fill="white"></path><path d="M148.479 33.7187H146.122C145.756 33.7187 145.431 34.0094 145.431 34.4247V37.0408H143.114V34.4247C143.114 32.7221 144.455 31.3933 146.081 31.3933H148.439V33.7603" fill="white"></path><path d="M146.569 39.7812H148.926C149.292 39.7812 149.617 39.4906 149.617 39.0753V36.5007H151.934V39.0753C151.934 40.7778 150.593 42.1067 148.967 42.1067H146.609V39.7397" fill="white"></path><path d="M108.364 31.3517H110.965V33.5526H108.364V37.9958C108.364 39.117 108.974 39.9475 110.356 39.9475H110.681V42.1483H109.787C106.901 42.1483 106.088 40.3212 106.088 38.2865V33.511H102.308V37.9543C102.308 39.0754 102.918 39.906 104.3 39.906H104.625V42.1068H103.731C100.845 42.1068 100.032 40.2797 100.032 38.2449V33.4695H98.894V31.2687H100.032V28.5695L102.267 27.2822V31.2687H106.047V28.5695L108.283 27.2822V31.2687" fill="white"></path><path d="M84.0592 31.144C83.3276 31.144 82.6367 31.2686 81.9864 31.5593V27.3652H79.751V42.1483H81.9864V33.7186C82.4335 33.4279 83.0838 33.2618 83.734 33.2618C85.1566 33.2618 85.8069 34.0508 85.8069 35.2551V42.1898H88.0423V34.9644C88.0423 32.7635 86.4978 31.1856 84.0592 31.1856" fill="white"></path><path d="M95.4797 39.9889C95.0326 40.238 94.5043 40.3626 93.9759 40.3626C92.3095 40.3626 91.6592 39.4906 91.6592 38.2863V31.3516H89.4238V38.3279C89.4238 41.027 90.9683 42.3558 93.6914 42.3558C96.4145 42.3558 96.4552 42.0236 97.7151 41.4423V31.3101H95.4797V39.9889Z" fill="white"></path><path d="M75.524 35.7534C75.3615 35.7534 74.8331 35.6288 74.6705 35.5873C73.8577 35.4212 73.1261 35.2551 73.1261 34.383C73.1261 33.511 73.8983 33.3034 74.8331 33.3034C76.215 33.3034 77.4343 33.9678 77.5969 34.0093L78.3691 31.933C78.0846 31.7669 76.8246 31.1025 74.8737 31.1025C72.9229 31.1025 70.8907 32.0576 70.8907 34.4661C70.8907 36.8746 72.3945 37.2898 73.8577 37.5805C74.0609 37.5805 74.6705 37.7466 74.8737 37.7466C75.8492 37.9127 76.3776 38.2864 76.3776 38.9508C76.3776 39.6153 75.6053 40.1551 74.4673 40.1551C72.6383 40.1551 71.541 39.6153 71.2158 39.4491L70.3623 41.4839C70.6062 41.6085 71.8661 42.3559 74.3454 42.3559C76.8246 42.3559 78.613 41.1517 78.613 38.9093C78.613 36.833 77.2311 36.0441 75.524 35.7534Z" fill="white"></path><path d="M120.272 34.8398C120.272 32.8466 118.809 31.144 116.127 31.144C113.444 31.144 111.94 33.0542 111.94 34.8398V38.411C111.94 40.9025 113.485 42.3559 116.127 42.3559C118.769 42.3559 119.622 40.9856 119.988 40.1966L118.078 39.0339C117.915 39.5322 117.143 40.1966 116.127 40.1966C115.111 40.1966 114.216 39.4076 114.216 38.411V37.8296H120.272V34.8813M118.037 35.9195H114.257V35.1305C114.257 34.2584 114.704 33.3034 116.167 33.3034C117.631 33.3034 118.037 34.2169 118.037 35.089V35.9195Z" fill="white"></path><path d="M121.695 34.8398V42.1483H123.93V35.0474C123.93 34.4246 124.255 33.3864 125.922 33.3864C127.588 33.3864 126.775 33.4695 126.938 33.511V31.2686C126.735 31.2271 126.288 31.144 125.8 31.144C122.955 31.144 121.654 32.9712 121.654 34.8813" fill="white"></path><path d="M173.069 33.2619C172.459 33.2619 171.971 32.8051 171.971 32.1822C171.971 31.5593 172.459 31.061 173.069 31.061C173.678 31.061 174.166 31.5593 174.166 32.1822C174.166 32.8051 173.678 33.2619 173.069 33.2619ZM173.069 31.3102C172.581 31.3102 172.256 31.6839 172.256 32.1822C172.256 32.6805 172.621 33.0127 173.069 33.0127C173.516 33.0127 173.881 32.639 173.881 32.1822C173.881 31.7254 173.516 31.3102 173.069 31.3102ZM173.231 32.7221L173.069 32.3483H172.947V32.7221H172.743V31.6009H173.15C173.434 31.6009 173.556 31.767 173.556 31.9746C173.556 32.1407 173.475 32.2653 173.353 32.3483L173.556 32.7221H173.231ZM173.272 31.9746C173.272 31.8915 173.231 31.8085 173.069 31.8085H172.947V32.1822H173.069C173.231 32.1822 173.272 32.0992 173.272 32.0161V31.9746Z" fill="white"></path><path d="M39.9609 3.28052H59.3073V7.55764H39.9609V3.28052ZM47.2768 5.43984H51.9914V22.4653H47.2768V5.43984Z" fill="white"></path><path d="M66.054 13.9526C66.054 14.9076 66.2166 15.6966 66.5824 16.4026C66.9481 17.1085 67.4765 17.6068 68.1268 17.9805C68.8177 18.3542 69.6713 18.5203 70.6467 18.5203C71.6222 18.5203 72.4757 18.3542 73.1666 17.9805C73.8576 17.6068 74.3859 17.067 74.7111 16.4026C75.0769 15.6966 75.2394 14.9076 75.2394 13.9526V3.28052H79.9541V14.2017C79.9541 15.9458 79.5477 17.4407 78.7754 18.7695C78.0032 20.0568 76.9058 21.0534 75.4833 21.8009C74.1014 22.5068 72.435 22.8805 70.5654 22.8805C68.6958 22.8805 67.0701 22.5068 65.6476 21.8009C64.2657 21.0949 63.1683 20.0568 62.3554 18.7695C61.5832 17.4822 61.1768 15.9458 61.1768 14.2017V3.28052H65.8914V13.9526H66.054Z" fill="white"></path><path d="M86.0098 11.7102H93.0411C93.9353 11.7102 94.6262 11.5026 95.1546 11.0873C95.683 10.672 95.9268 10.0907 95.9268 9.34323C95.9268 8.59577 95.683 8.01442 95.1546 7.59916C94.6262 7.18391 93.9353 6.97628 93.0411 6.97628H85.3595L87.473 4.60933V22.4653H82.7583V3.28052H93.6914C95.0733 3.28052 96.3333 3.52967 97.3494 4.02798C98.4061 4.52628 99.219 5.23221 99.788 6.14577C100.357 7.05933 100.682 8.09747 100.682 9.3017C100.682 10.5059 100.398 11.5441 99.788 12.4576C99.219 13.3712 98.4061 14.0771 97.3494 14.5754C96.2926 15.0737 95.0733 15.3229 93.6914 15.3229H86.0504V11.6687L86.0098 11.7102ZM89.0174 13.4958H94.3417L101.251 22.4653H95.7643L89.0174 13.4958Z" fill="white"></path><path d="M116.086 13.039L116.493 12.0839C117.956 12.0839 119.175 12.3331 120.11 12.7898C121.045 13.2051 121.736 13.7864 122.223 14.5339C122.67 15.2814 122.914 16.1119 122.914 17.067C122.914 18.022 122.67 19.0187 122.223 19.8492C121.776 20.6381 121.045 21.3026 120.151 21.7593C119.216 22.2161 118.078 22.4653 116.696 22.4653H103.202V12.6237C103.243 12.6237 103.202 3.28052 103.202 3.28052H116.249C117.996 3.28052 119.338 3.69577 120.272 4.52628C121.248 5.35679 121.695 6.47798 121.695 7.93137C121.695 9.38476 121.492 9.50933 121.126 10.2153C120.76 10.9627 120.191 11.5856 119.378 12.0839C118.565 12.5822 117.509 12.9144 116.127 13.039H116.086ZM107.795 21.261L106.007 18.9771H115.517C116.33 18.9771 116.98 18.7695 117.427 18.3958C117.874 17.9805 118.118 17.4407 118.118 16.6932C118.118 15.9458 117.874 15.3644 117.346 14.9492C116.818 14.5339 116.086 14.2848 115.07 14.2848H107.267V10.9212H114.46C115.151 10.9212 115.72 10.7136 116.167 10.3398C116.615 9.92459 116.858 9.38475 116.858 8.67882C116.858 7.97289 116.655 7.64069 116.289 7.26696C115.883 6.89323 115.355 6.72713 114.623 6.72713H106.007L107.795 4.44323L107.714 12.5822L107.795 21.261Z" fill="white"></path><path d="M134.986 22.8389C132.791 22.8389 130.84 22.4237 129.214 21.5932C127.548 20.7627 126.247 19.6 125.353 18.105C124.418 16.6101 123.971 14.8661 123.971 12.8728C123.971 10.8796 124.418 9.13555 125.353 7.64064C126.288 6.14572 127.548 4.98301 129.214 4.1525C130.881 3.32199 132.791 2.90674 134.986 2.90674C137.18 2.90674 139.131 3.32199 140.757 4.1525C142.423 4.98301 143.724 6.14572 144.618 7.64064C145.553 9.13555 146 10.8796 146 12.8728C146 14.8661 145.553 16.6101 144.618 18.105C143.683 19.6 142.383 20.7627 140.757 21.5932C139.091 22.4237 137.18 22.8389 134.986 22.8389ZM134.986 18.5203C136.286 18.5203 137.384 18.3127 138.318 17.8559C139.253 17.3991 139.985 16.7347 140.472 15.9042C141.001 15.0322 141.245 14.0356 141.245 12.8728C141.245 11.7101 141.001 10.672 140.472 9.84148C139.944 8.96945 139.253 8.34657 138.318 7.88979C137.384 7.43301 136.286 7.22538 134.986 7.22538C133.685 7.22538 132.588 7.43301 131.653 7.88979C130.718 8.34657 129.986 9.01098 129.458 9.84148C128.93 10.7135 128.686 11.7101 128.686 12.8728C128.686 14.0356 128.93 15.0737 129.458 15.9042C129.986 16.7762 130.718 17.3991 131.653 17.8559C132.588 18.3127 133.685 18.5203 134.986 18.5203Z" fill="white"></path><path d="M147.26 16.1949H152.056C152.137 16.7762 152.381 17.2745 152.828 17.7313C153.275 18.1881 153.844 18.5203 154.576 18.7694C155.307 19.0186 156.161 19.1432 157.096 19.1432C158.478 19.1432 159.575 18.9355 160.347 18.5618C161.119 18.1881 161.526 17.6067 161.526 16.9008C161.526 16.1949 161.282 15.9457 160.835 15.655C160.388 15.3643 159.534 15.1567 158.274 14.9906L154.657 14.6169C152.137 14.3677 150.308 13.7449 149.211 12.8313C148.073 11.8762 147.504 10.6304 147.504 9.01095C147.504 7.39146 147.87 6.64401 148.601 5.73045C149.333 4.81689 150.39 4.15248 151.731 3.65417C153.072 3.19739 154.657 2.94824 156.445 2.94824C158.234 2.94824 159.819 3.19739 161.16 3.73723C162.542 4.27706 163.599 4.98299 164.452 5.93807C165.265 6.89316 165.712 7.97282 165.793 9.21858H160.998C160.916 8.67875 160.713 8.2635 160.307 7.88977C159.9 7.51604 159.372 7.22536 158.721 7.01773C158.071 6.81011 157.258 6.68553 156.364 6.68553C155.47 6.68553 154.088 6.85163 153.357 7.22536C152.625 7.59909 152.259 8.09739 152.259 8.80333C152.259 9.50926 152.462 9.71689 152.909 10.0076C153.357 10.2982 154.129 10.5059 155.267 10.6304L159.087 11.0457C160.835 11.2533 162.257 11.544 163.274 11.9593C164.29 12.3745 165.062 12.9143 165.55 13.6618C165.997 14.3677 166.241 15.2813 166.241 16.361C166.241 17.4406 165.834 18.811 165.062 19.8076C164.29 20.8042 163.192 21.5516 161.81 22.0915C160.429 22.6313 158.803 22.922 156.933 22.922C155.064 22.922 153.316 22.6313 151.893 22.0915C150.471 21.5101 149.333 20.7626 148.479 19.766C147.666 18.7694 147.219 17.6067 147.179 16.2779L147.26 16.1949Z" fill="white"></path><path d="M179.165 22.8389C176.97 22.8389 175.019 22.4237 173.393 21.5932C171.727 20.7627 170.426 19.6 169.532 18.105C168.597 16.6101 168.15 14.8661 168.15 12.8728C168.15 10.8796 168.597 9.13555 169.532 7.64064C170.467 6.14572 171.727 4.98301 173.393 4.1525C175.06 3.32199 176.97 2.90674 179.165 2.90674C181.36 2.90674 183.31 3.32199 184.936 4.1525C186.603 4.98301 187.903 6.14572 188.797 7.64064C189.732 9.13555 190.179 10.8796 190.179 12.8728C190.179 14.8661 189.732 16.6101 188.797 18.105C187.863 19.6 186.562 20.7627 184.936 21.5932C183.27 22.4237 181.36 22.8389 179.165 22.8389ZM179.165 18.5203C180.465 18.5203 181.563 18.3127 182.498 17.8559C183.432 17.3991 184.164 16.7347 184.652 15.9042C185.18 15.0322 185.424 14.0356 185.424 12.8728C185.424 11.7101 185.18 10.672 184.652 9.84148C184.123 8.96945 183.432 8.34657 182.498 7.88979C181.563 7.43301 180.465 7.22538 179.165 7.22538C177.864 7.22538 176.767 7.43301 175.832 7.88979C174.897 8.34657 174.166 9.01098 173.637 9.84148C173.109 10.7135 172.865 11.7101 172.865 12.8728C172.865 14.0356 173.109 15.0737 173.637 15.9042C174.166 16.7762 174.897 17.3991 175.832 17.8559C176.767 18.3127 177.864 18.5203 179.165 18.5203ZM176.157 14.783H181.766L189.976 23.8356H184.164L176.117 14.783H176.157Z" fill="white"></path><path d="M197.495 13.9526C197.495 14.9076 197.658 15.6966 198.024 16.4026C198.39 17.1085 198.918 17.6068 199.568 17.9805C200.259 18.3542 201.113 18.5203 202.088 18.5203C203.064 18.5203 203.917 18.3542 204.608 17.9805C205.299 17.6068 205.827 17.067 206.152 16.4026C206.518 15.6966 206.681 14.9076 206.681 13.9526V3.28052H211.396V14.2017C211.396 15.9458 210.989 17.4407 210.217 18.7695C209.445 20.0568 208.347 21.0534 206.925 21.8009C205.502 22.5483 203.876 22.8805 202.007 22.8805C200.137 22.8805 198.511 22.5068 197.089 21.8009C195.666 21.0949 194.61 20.0568 193.797 18.7695C193.025 17.4822 192.618 15.9458 192.618 14.2017V3.28052H197.333V13.9526H197.495Z" fill="white"></path><path d="M214.159 3.28052H218.874V22.4237H214.159V3.28052Z" fill="white"></path><path d="M230.986 3.28052C233.18 3.28052 235.131 3.69577 236.757 4.48475C238.423 5.27374 239.683 6.39492 240.618 7.84831C241.553 9.26018 242 10.9627 242 12.8729C242 14.7831 241.553 16.4441 240.618 17.8975C239.683 19.3509 238.423 20.472 236.757 21.261C235.091 22.05 233.18 22.4653 230.986 22.4653H221.841V3.28052H230.986ZM226.555 20.472L224.239 18.1881H231.351C232.571 18.1881 233.587 17.9805 234.481 17.5237C235.375 17.067 236.066 16.4441 236.513 15.6551C237.001 14.8661 237.245 13.911 237.245 12.8729C237.245 11.8348 237.001 10.8381 236.513 10.0492C236.025 9.26018 235.334 8.6373 234.481 8.22204C233.587 7.76526 232.571 7.55764 231.351 7.55764H224.239L226.555 5.27374V20.5136V20.472Z" fill="white"></path></g><defs><linearGradient id="paint0_linear_8570_958" x1="1.80176" y1="39.3716" x2="29.8665" y2="11.9029" gradientUnits="userSpaceOnUse"><stop stop-color="#FFA800"></stop><stop offset="1" stop-color="#FF6B00"></stop></linearGradient><clipPath id="clip0_8570_958"><rect width="242" height="49" fill="white"></rect></clipPath></defs></svg>